Coordinates
version=1
nRows=26
nColumns=24
inDegrees=yes

Units are S.I. units (second, meters, Newtons, ...)
Angles are in degrees.

endheader
time	pelvis_tilt	pelvis_list	pelvis_rotation	pelvis_tx	pelvis_ty	pelvis_tz	hip_flexion_r	hip_adduction_r	hip_rotation_r	knee_angle_r	ankle_angle_r	subtalar_angle_r	mtp_angle_r	hip_flexion_l	hip_adduction_l	hip_rotation_l	knee_angle_l	ankle_angle_l	subtalar_angle_l	mtp_angle_l	lumbar_extension	lumbar_bending	lumbar_rotation
      1.10816667	      0.78707493	      1.16805139	      3.13439014	     -0.09955213	      0.97784498	      0.30825209	    -22.77342926	      2.53872492	     -5.24922587	     -0.36956319	     17.83244840	     -1.88226493	     -4.41561892	     21.42290950	      3.31750936	      5.80710096	      2.79293478	     -2.48412933	     -7.85454207	     -2.41969453	    -13.30183605	      4.04410925	      5.29187760
      1.11233333	      0.81692630	      1.34628021	      3.14501422	     -0.09368593	      0.97719104	      0.30771572	    -22.92088813	      2.31366742	     -5.46960996	     -0.91203292	     17.99719718	     -1.58121792	     -4.32385627	     21.43608989	      3.59561994	      5.96371212	      2.40439367	     -2.70606241	     -8.08119983	     -2.32353594	    -13.33661560	      3.81963984	      5.27212409
      1.11650000	      0.84169140	      1.53807952	      3.15430687	     -0.08779150	      0.97658267	      0.30716559	    -23.04773288	      2.06993155	     -5.68432970	     -1.48789914	     18.13798667	     -1.30335148	     -4.21575135	     21.46506047	      3.89025015	      6.11760253	      1.93219196	     -2.98353042	     -8.34408372	     -2.22358431	    -13.36448385	      3.57653366	      5.24751912
      1.12066667	      0.86500860	      1.73501633	      3.16921686	     -0.08186507	      0.97601925	      0.30659917	    -23.15795847	      1.82062770	     -5.89632468	     -2.09880808	     18.25165219	     -1.03998758	     -4.08889177	     21.50835855	      4.19457259	      6.27180830	      1.37859127	     -3.30879054	     -8.64276485	     -2.11918425	    -13.37794093	      3.32063515	      5.20857385
      1.12483333	      0.87758139	      1.93849365	      3.18739911	     -0.07591308	      0.97549436	      0.30601202	    -23.24430493	      1.56168876	     -6.09378224	     -2.73440870	     18.32897534	     -0.80826050	     -3.94097354	     21.57343192	      4.50942756	      6.42288105	      0.75380741	     -3.67521137	     -8.96510089	     -2.01171645	    -13.38767804	      3.06694666	      5.16464808
      1.12900000	      0.88669768	      2.14743690	      3.20941567	     -0.06993175	      0.97501033	      0.30541641	    -23.31262124	      1.29706235	     -6.28408846	     -3.40316676	     18.37258148	     -0.60217496	     -3.76900989	     21.65508029	      4.83287584	      6.56741498	      0.06046207	     -4.09110280	     -9.32850472	     -1.90153856	    -13.38528826	      2.80383177	      5.10835189
      1.13316667	      0.88855125	      2.35731054	      3.23516900	     -0.06392942	      0.97456732	      0.30480379	    -23.35960311	      1.03019976	     -6.45868778	     -4.09781734	     18.37284353	     -0.43298146	     -3.56780995	     21.75429226	      5.16063690	      6.71079916	     -0.68966445	     -4.52968990	     -9.71174479	     -1.78870562	    -13.37528108	      2.54080254	      5.04521194
      1.13733333	      0.87936680	      2.56842480	      3.26486563	     -0.05790017	      0.97415869	      0.30417420	    -23.37886141	      0.76076863	     -6.61920315	     -4.82552764	     18.33356880	     -0.29358589	     -3.33591078	     21.87554955	      5.49299786	      6.84331310	     -1.49320808	     -4.99594529	    -10.12214545	     -1.67696658	    -13.35060635	      2.27658918	      4.97557880
      1.14150000	      0.86890190	      2.78175809	      3.29829704	     -0.05184967	      0.97379832	      0.30353089	    -23.38395782	      0.48905323	     -6.76385727	     -5.57736488	     18.24635535	     -0.19344086	     -3.07004974	     22.00631561	      5.82999100	      6.96801464	     -2.34113198	     -5.46654648	    -10.54111944	     -1.56995123	    -13.32253806	      2.01117891	      4.89559093
      1.14566667	      0.96117590	      3.04566820	      3.34483498	     -0.04573725	      0.97362764	      0.30285090	    -23.50602716	      0.17543220	     -6.99054395	     -6.32200455	     18.05281186	     -0.06960621	     -1.49207894	     21.98603930	      6.21924058	      7.16177230	     -3.13387314	     -6.03175202	    -11.10076412	     -1.02323653	    -13.42831158	      1.69009683	      4.78571182
      1.14983333	      0.84848551	      3.19774986	      3.37114893	     -0.03968772	      0.97323458	      0.30221599	    -23.35436878	     -0.04156530	     -6.97878352	     -7.14616857	     17.86739225	     -0.17386757	     -1.30475427	     22.28903229	      6.49643911	      7.18749894	     -4.14910602	     -6.36973992	    -11.38896594	     -0.98921392	    -13.26757831	      1.49223892	      4.73364388
      1.15400000	      0.80732517	      3.39561505	      3.41026676	     -0.03357858	      0.97298794	      0.30153105	    -23.26694961	     -0.30297170	     -7.07683588	     -8.00781331	     17.63902613	     -0.16220502	     -0.98906294	     22.46802571	      6.82416018	      7.30826929	     -5.09035523	     -6.80782343	    -11.85874252	     -0.95004893	    -13.19725001	      1.24952115	      4.63024714
      1.15816667	      0.83562283	      3.61780981	      3.44025792	     -0.02744208	      0.97289111	      0.30086624	    -23.25581734	     -0.58261604	     -7.13907165	     -8.85052145	     17.26165548	     -0.34049966	      4.30214085	     22.56254461	      7.16825740	      7.40283669	     -6.03153712	     -7.20115404	    -12.31529808	     -0.51296973	    -13.22097214	      0.96608129	      4.55926229
      1.16233333	      0.78527412	      3.79876144	      3.48920234	     -0.02128443	      0.97274144	      0.30016177	    -23.13196119	     -0.82257732	     -7.19779669	     -9.74631309	     16.86104771	     -0.41276866	      4.36034329	     22.76402824	      7.48130075	      7.48454476	     -7.03421816	     -7.50011994	    -12.67799951	     -0.53798775	    -13.12782576	      0.74196532	      4.44302468
      1.16650000	      0.77557092	      4.00851406	      3.52283048	     -0.01508933	      0.97270477	      0.29948296	    -23.04036951	     -1.09106486	     -7.22228720	    -10.66410661	     16.43389660	     -0.56590856	      4.42428270	     22.90623874	      7.81439850	      7.54293505	     -8.02567522	     -7.73104505	    -13.02206557	     -0.56181688	    -13.09053531	      0.46093556	      4.34943781
      1.17066667	      0.73358603	      4.16278174	      3.55577879	     -0.00894975	      0.97267810	      0.29876055	    -22.84929182	     -1.31686795	     -7.24607304	    -11.69012688	     15.96827060	     -0.68592203	      4.60047781	     23.07884745	      8.09971293	      7.67255072	     -9.00574583	     -7.99063655	    -13.47896160	     -0.61672146	    -13.01221101	      0.28774219	      4.24190674
      1.17483333	      0.70526141	      4.33583528	      3.58698225	     -0.00276620	      0.97272518	      0.29802863	    -22.66568552	     -1.56059830	     -7.25483899	    -12.72412303	     15.43739842	     -0.84992056	      4.94821709	     23.22655430	      8.40466373	      7.78923968	     -9.98757269	     -8.16848370	    -13.92178434	     -0.71970298	    -12.94948389	      0.08523024	      4.12818667
      1.17900000	      0.75605408	      4.54639575	      3.60513896	      0.00347527	      0.97295192	      0.29731763	    -22.56125172	     -1.84230866	     -7.29608782	    -13.75040796	     14.71272813	     -1.08493877	     10.16688559	     23.25149583	      8.73880043	      7.90500773	    -10.91402442	     -8.25098618	    -14.33473732	     -2.18725613	    -12.97844871	     -0.17003252	      3.98398991
      1.18316667	      0.76611387	      4.72457581	      3.62001489	      0.00969528	      0.97315307	      0.29661908	    -22.36684090	     -2.09499820	     -7.28349935	    -14.86309690	     14.06460534	     -1.30505341	     10.20213404	     23.34580379	      9.03599032	      7.95292597	    -11.90162632	     -8.16876907	    -14.57672270	     -2.18745751	    -12.96388812	     -0.41024664	      3.93710381
      1.18733333	      0.77526647	      4.88954662	      3.62180577	      0.01591066	      0.97341540	      0.29591159	    -22.12926615	     -2.34524701	     -7.26291118	    -16.03723916	     13.33259106	     -1.52321369	     10.27558235	     23.42050779	      9.31839708	      8.01627192	    -12.85086417	     -8.07416360	    -14.85888110	     -2.20133745	    -12.94251741	     -0.61382248	      3.85986893
      1.19150000	      0.74846913	      5.00347998	      3.61773374	      0.02207682	      0.97367305	      0.29519671	    -21.79423351	     -2.55378718	     -7.21182158	    -17.29607694	     12.54769922	     -1.78364267	     10.55619197	     23.53365710	      9.55083970	      8.09018633	    -13.79829287	     -7.95184057	    -15.14620777	     -2.27041866	    -12.87014289	     -0.73019947	      3.76600215
      1.19566667	      0.80959176	      5.15025693	      3.60641068	      0.02828666	      0.97410412	      0.29453355	    -21.55398934	     -2.78299915	     -7.16021286	    -18.52533480	     11.57602482	     -2.20958569	     15.01894322	     23.53744799	      9.79911167	      8.09044986	    -14.74140427	     -7.53847417	    -15.13713425	     -3.46986915	    -12.90811686	     -0.90294471	      3.65255106
      1.19983333	      0.83458057	      5.32756148	      3.56992652	      0.03450793	      0.97454646	      0.29380274	    -21.20738927	     -3.08877267	     -7.19117477	    -19.89363197	     10.66648219	     -2.32761261	     15.10325180	     23.50633470	     10.09137653	      8.21936424	    -15.52858126	     -7.39247049	    -15.55176961	     -3.48357592	    -12.88838094	     -1.11113047	      3.61084484
      1.20400000	      0.91517286	      5.49806241	      3.52500858	      0.04070968	      0.97509084	      0.29311948	    -20.89958490	     -3.37961906	     -7.18409187	    -21.27083756	      9.68749132	     -2.51103100	     15.17628300	     23.42217364	     10.36447518	      8.27940266	    -16.33978000	     -7.07570607	    -15.81877779	     -3.49755506	    -12.95927573	     -1.32070195	      3.53526968
      1.20816667	      0.94225397	      5.61813946	      3.47357666	      0.04685223	      0.97559784	      0.29243707	    -20.47046857	     -3.63361594	     -7.15680149	    -22.72502465	      8.58829181	     -2.83706202	     19.45920966	     23.39363651	     10.58262922	      8.31484289	    -17.14245840	     -6.65489599	    -15.96664652	     -4.70361785	    -12.94212171	     -1.44809379	      3.48001358
      1.21233333	      1.03292081	      5.78086847	      3.40821562	      0.05301114	      0.97623851	      0.29177320	    -20.09201591	     -3.93830740	     -7.15419991	    -24.20294046	      7.46386685	     -3.02061908	     19.47670521	     23.25177364	     10.83878873	      8.37059208	    -17.86079296	     -6.26503804	    -16.17929582	     -4.69900720	    -13.02006903	     -1.63843321	      3.40191283
